<svg id="Calque_1" data-name="Calque 1" xmlns="http://www.w3.org/2000/svg" viewBox="0 0 1729.81 1317.45"><defs><style>.cls-1{fill:#ebf2fb;}.cls-2{fill:#252856;}.cls-3{fill:#2c3568;}.cls-4{fill:#f3988d;}.cls-5{fill:#f7b7a1;}.cls-11,.cls-12,.cls-13,.cls-15,.cls-6,.cls-8{fill:none;}.cls-6{stroke:#1d1d1b;}.cls-11,.cls-12,.cls-15,.cls-6,.cls-8{stroke-miterlimit:10;}.cls-7{fill:#272c60;}.cls-8{stroke:#5d9ad3;}.cls-9{fill:#5e9ad3;}.cls-10{fill:#242958;}.cls-11{stroke:#547fc0;stroke-width:3px;}.cls-12,.cls-15{stroke:#242958;}.cls-14{fill:#547fc0;}.cls-15{stroke-width:11px;}.cls-16{fill:#b8e1f9;}.cls-17,.cls-25{fill:#5b93ce;}.cls-18,.cls-25{font-size:80.4px;}.cls-18,.cls-19,.cls-32{fill:#fff;}.cls-18,.cls-19,.cls-25,.cls-32{font-family:LemonMilk, "Lemon/Milk";}.cls-19,.cls-32{font-size:71.97px;}.cls-19{letter-spacing:-0.07em;}.cls-20{letter-spacing:-0.24em;}.cls-21{letter-spacing:-0.24em;}.cls-22{letter-spacing:-0.04em;}.cls-23{letter-spacing:0em;}.cls-24{letter-spacing:-0.05em;}.cls-26{fill:#142135;}.cls-27{fill:#519fd7;}.cls-28{fill:#2d0e0f;}.cls-29{fill:#f3981b;}.cls-30{fill:#431338;}.cls-31{fill:#bf74ae;}.cls-32{letter-spacing:-0.07em;}.cls-33{letter-spacing:-0.24em;}.cls-34{letter-spacing:-0.24em;}.cls-35{letter-spacing:-0.04em;}</style></defs><path class="cls-1" d="M1765.78,1643c176.3-295.49-29.11-429.7-29.11-429.7s-471.81-154.49-287.46-338.91-253.76-336.57-253.76-336.57S775.93,457.66,753.89,678.08,537.47,896.49,537.47,896.49s-220.42-54.1-308.59,189.88S477.36,1630,477.36,1630Z" transform="translate(-107.43 -356.01)"/><path class="cls-2" d="M715.92,1603.88l-42.4,22v0l-.07-.08L438.2,1352.15c4.16-3.14,8.95-1.52,45.2,12.58,32.18,12.52,38.46,15.15,44.58,23.08,8.91,11.53,5,18.19,13.2,23.83,12,8.31,23.66-4.29,47.43-.78,4.84.72,30.35,4.49,39,21.38,9.1,17.85-9.71,32.61-2.29,48.06,9.81,20.39,48.52,7,72.88,26.31C712,1517.58,725.05,1542.16,715.92,1603.88Z" transform="translate(-107.43 -356.01)"/><path class="cls-3" d="M673.52,1625.93l-36.79,19.13c-59.06-16.63-75.2-36.74-78.39-52.63-3.32-16.58,7.7-27.34.63-38.9-13.13-21.48-60.81-.17-75.54-20.59-14.46-20.07,20.94-55.29,4.54-78.39-10.06-14.16-27.43-7.21-41.19-26.31-7-9.7-8.43-19.72-10.87-36.62-2.88-19.95-4.92-34,2.29-39.47l235.24,273.68.07.08Z" transform="translate(-107.43 -356.01)"/><path class="cls-1" d="M2077.34,1110.43" transform="translate(-107.43 -356.01)"/><path class="cls-4" d="M970.58,1070.31l-4.85,25v21l-37.34,23.39-65.15-4.48L847,1086.37l21.41-109.92,8.4,7.71-14.63,80.67s-4.73,38.59,33.86,53.52,69.71-26.13,69.71-26.13c-13-2.06-38.15-8.16-57-29.13-18.61-20.69-24.08-48.06-21.16-49.54,2.53-1.29,9.93,17.72,29.62,33.86C935.07,1062.06,955.15,1067.83,970.58,1070.31Z" transform="translate(-107.43 -356.01)"/><path class="cls-5" d="M1024.84,941.35c0,.18,0,.37-.08.55-1.48,9.84-3.27,20.12-3.27,20.12s-2.24,22.4-15.93,64.48-35,43.81-35,43.81c-15.43-2.48-35.51-8.25-53.4-22.9-19.69-16.14-27.09-35.15-29.62-33.86-2.92,1.48,2.55,28.85,21.16,49.54,18.86,21,44,27.07,57,29.13,0,0-31.12,41.07-69.71,26.13s-33.86-53.52-33.86-53.52l14.63-80.67-8.4-7.71C855.94,972,852.2,959,852.2,959s-2-22.66,2-34.1,12.15-3.69,12.15-3.69L885.56,918l25.15-27.64,34-9.84c.12.34.25.68.39,1C962.05,924.88,1011.69,937.7,1024.84,941.35Z" transform="translate(-107.43 -356.01)"/><path class="cls-6" d="M1026.7,923.29l-.33-5C1026.52,920.09,1026.64,921.81,1026.7,923.29Z" transform="translate(-107.43 -356.01)"/><path class="cls-4" d="M1026.72,925.92c-.1,2.91-.92,9-1.88,15.43-13.15-3.65-62.79-16.47-79.78-59.84-.14-.35-.27-.69-.39-1l21.06-6.1,4.38,1.68h0c24.4,15,56.23,42.1,56.23,42.1v.09l.33,5v.06C1026.73,924.32,1026.74,925.19,1026.72,925.92Z" transform="translate(-107.43 -356.01)"/><polygon class="cls-5" points="770.17 623.68 769.36 628.15 760.96 620.44 770.17 623.68"/><path class="cls-5" d="M965.73,1092.22s-31.12,41.07-69.71,26.13-33.86-53.52-33.86-53.52l14.63-80.67,93.79,86.15c-15.43-2.48-35.51-8.25-53.4-22.9-19.69-16.14-27.09-35.15-29.62-33.86-2.92,1.48,2.55,28.85,21.16,49.54C927.58,1084.06,952.72,1090.16,965.73,1092.22Z" transform="translate(-107.43 -356.01)"/><path class="cls-7" d="M862,916.16a4.19,4.19,0,0,0,2.24,4c.2.11.4.22.6.35,9.88,5.94,17.42,25.48,20.6,35,.3.9,1.63.12,3.07-.07,9.88-1.38,12.22-12.28,23.57-26.4,8.45-10.53,10.72-8.91,14.93-16.43,5.18-9.25,5.77-18.89,5.39-25.83,21.38,1.7,34.63,8.36,42.91,14.38,6.71,4.88,13,11.45,25.64,15.93,3.74,1.33,8.55,2.3,18.17,4.24,19.61,3.94,23.73,3.06,25.93,2.44,1.83-.51,11.57-3.36,15.4-10.66.64-1.22.68-1.68,3-6.72,3.54-7.71,3.65-7.07,3.74-8,.38-3.84-4.38-9-13.91-19.28a34.63,34.63,0,0,1-3.22-3.81c-2.55-3.61-3.5-7-10-17.38-7.86-12.5-15.68-25.58-26.47-34-16-12.45-40.73-16.58-60.84-8.47a56.14,56.14,0,0,0-15.89,9.79c-13-7.17-23.15-6.72-27.74-6.13-31.15,4-45.57,45.3-45.88,57.15-.1,3.67.22,11.07-.33,24.68C862.62,907,862.29,912.2,862,916.16Z" transform="translate(-107.43 -356.01)"/><path class="cls-8" d="M1118,1221.54s-.34,1.17-1,3.36" transform="translate(-107.43 -356.01)"/><path class="cls-5" d="M847,1086.37" transform="translate(-107.43 -356.01)"/><path class="cls-9" d="M1218.45,1484.64c-7.37-2.65-16.82-7.44-23.76-16.59-8.26-10.88-8.22-21.66-11.86-41.51-2.73-15-7.72-29.41-11.44-44.16-2.73-10.88-13.67-54.38-27.36-91.57-15.49-42.13-23.25-63.19-41.51-86.26-31.64-39.94-44.85-24.39-94.94-73.89-7.35-7.27-24.51-24.85-37.56-20.3-7.09,2.48-9,10.11-21.8,16.54a56.89,56.89,0,0,1-17.28,5.25c-6.79,1.17-27.8,4.76-48.85-7.51a67.06,67.06,0,0,1-24.79-25.54c-2.75-5-7.24-13.13-7.52-24-.38-15.13,7.67-21.39,5.26-24.8-6.95-9.84-81.57,32.21-109.21,48.1-77.55,44.56-88.36,57.32-95.74,71.39-8,15.33-8.36,25.3-13.46,78.89-9.07,95.28-9.46,78.61-12,116.22-7.59,111.46-2,227.6,0,265.23H930.49c110.06,0,209.42-32,284.49-65.84l-19.53-60.12Zm-145.07,36.67c-11.1-.93-21.7-2.29-32-3.66-4.67-.62-9.17-1.29-13.55-2a208.83,208.83,0,0,1-.27-63.83,187.33,187.33,0,0,1,39.46-90c11.4,48.72,57.93,137.75,68.77,158.13A272.2,272.2,0,0,1,1073.38,1521.31Z" transform="translate(-107.43 -356.01)"/><path class="cls-10" d="M1701.5,1577.2l-5.41,44.83a7.78,7.78,0,0,1-7.68,6.87l-443,1.18a7,7,0,0,1-1.22-.11h0a7.8,7.8,0,0,1-6.48-8.6L1269.31,1343C1269.91,1344.94,1333.47,1547.15,1701.5,1577.2Z" transform="translate(-107.43 -356.01)"/><path class="cls-3" d="M1744.36,1222.05,1701.5,1577.2c-368-30-431.59-232.26-432.19-234.19h0l14-122.79a7.8,7.8,0,0,1,3.4-5.6,7.61,7.61,0,0,1,4.3-1.32h445.71A7.78,7.78,0,0,1,1744.36,1222.05Z" transform="translate(-107.43 -356.01)"/><path class="cls-3" d="M1286.66,1214.61a7.82,7.82,0,0,0-3.4,5.61l-33.92,298.63-3.87,34.08-7.78,68.43a7.79,7.79,0,0,0,6.48,8.6h-28.72l4.45-37.23,3.79-31.74,11-92.42,30.18-252.46a3,3,0,0,1,3.16-2.65Z" transform="translate(-107.43 -356.01)"/><line class="cls-10" x1="1108.02" y1="1273.97" x2="1108.01" y2="1274.06"/><path class="cls-10" d="M1219.9,1592.74l-4.45,37.24-168.6.1a17,17,0,0,1,0-32.8Z" transform="translate(-107.43 -356.01)"/><line class="cls-10" x1="1114.25" y1="1236.69" x2="1112.47" y2="1236.73"/><path class="cls-10" d="M1217.17,1630h-1.72" transform="translate(-107.43 -356.01)"/><path class="cls-11" d="M802.94,1287.71s2,176.34,114.22,201.39c5.1,1.13,26,7.58,50.25,13.46,22.54,5.48,40.35,9.79,60.44,13.08" transform="translate(-107.43 -356.01)"/><rect class="cls-10" x="332.82" y="1274.06" width="1325.53" height="43.38" rx="9.06"/><path class="cls-12" d="M1219.74,1485.09l-1.29-.45" transform="translate(-107.43 -356.01)"/><path class="cls-13" d="M1069.45,1358.84c-.82,1-1.62,2-2.41,3" transform="translate(-107.43 -356.01)"/><path class="cls-13" d="M1027.85,1515.64c.69,4.31,1.31,7.25,1.53,8.52" transform="translate(-107.43 -356.01)"/><path class="cls-14" d="M1135.81,1519.92a272.2,272.2,0,0,1-62.43,1.39c-17.2-18.79-35.11-49.68-45.8-69.5a187.33,187.33,0,0,1,39.46-90C1078.44,1410.51,1125,1499.54,1135.81,1519.92Z" transform="translate(-107.43 -356.01)"/><path class="cls-13" d="M1067,1361.79a109.28,109.28,0,0,1-2.1-11.47" transform="translate(-107.43 -356.01)"/><path class="cls-14" d="M1215.09,1483.33l-19.64,20.78L1136,1519.87l-5.41-1.46-.23-8.9a258.69,258.69,0,0,0,33.21-4.09c17.77-3.37,23.22-6.38,26-8.1a50.91,50.91,0,0,0,17.21-18.34Z" transform="translate(-107.43 -356.01)"/><path class="cls-13" d="M1091,1535.68c-5.55-2.58-11.55-7.72-17.62-14.37" transform="translate(-107.43 -356.01)"/><path class="cls-13" d="M1027.58,1451.81c-6-11.17-9.73-18.83-9.73-18.83" transform="translate(-107.43 -356.01)"/><path class="cls-14" d="M930.49,1630.08H669.19a662.7,662.7,0,0,1-32-183.09c-.6-19.48-.3-38.12.67-55.8,2.51,18.24,25.27,143.16,113.13,199.57,23.59,15.15,53.3,27.46,107.31,34.61A551.19,551.19,0,0,0,930.49,1630.08Z" transform="translate(-107.43 -356.01)"/><path class="cls-14" d="M570.5,1378.38" transform="translate(-107.43 -356.01)"/><path class="cls-4" d="M1234.74,1468.58l-11,92.42-8.71,3.23-19.53-60.12S1224,1471.88,1234.74,1468.58Z" transform="translate(-107.43 -356.01)"/><path class="cls-10" d="M862,1551.44V1630H783.7v-78.54a5.71,5.71,0,0,1,5.7-5.71h66.87A5.71,5.71,0,0,1,862,1551.44Z" transform="translate(-107.43 -356.01)"/><path class="cls-15" d="M799.52,1575.22a27.17,27.17,0,0,0-25.39-.56c-8.2,4.26-12.49,12.49-10.68,20.62a20.92,20.92,0,0,0,8.68,11.58c7.42,4.87,18,5.56,27.39,2" transform="translate(-107.43 -356.01)"/><rect class="cls-10" x="272.26" width="285.57" height="200.73" rx="39.31"/><rect class="cls-16" x="639.03" y="170.64" width="436.23" height="198.38" rx="39.31"/><circle class="cls-10" cx="1356.82" cy="137.25" r="137.25"/><path class="cls-16" d="M1764.18,955.89a138.58,138.58,0,0,1-201.9,123.22c-42.8-22.65-75.67-70.4-75.16-123.22.67-69.15,58.49-138.52,138.53-138.52A138.53,138.53,0,0,1,1764.18,955.89Z" transform="translate(-107.43 -356.01)"/><rect class="cls-17" y="461.99" width="463.07" height="210.58" rx="39.31"/><path class="cls-10" d="M1417.15,702.12" transform="translate(-107.43 -356.01)"/><polyline class="cls-10" points="366.76 194.82 316.54 256.94 316.54 179.65"/><polyline class="cls-10" points="1451.16 234.87 1436.33 314.14 1389.51 252.5"/><polyline class="cls-17" points="43.3 658.71 43.3 730.36 99.41 645.04"/><polyline class="cls-16" points="1451.16 700.72 1451.16 804.67 1531.04 724.8"/><polyline class="cls-16" points="1000.13 339.35 1036.47 415.5 1062.25 339.35"/><text class="cls-18" transform="translate(306.45 123.54)">HTML</text><text class="cls-18" transform="translate(1283.91 170.64)">PHP</text><text class="cls-18" transform="translate(1411.04 628.15)">C/C++</text><text class="cls-19" transform="translate(29.63 603.17)">J<tspan class="cls-20" x="35.5" y="0">A</tspan><tspan class="cls-21" x="72.96" y="0">V</tspan><tspan class="cls-22" x="109.9" y="0">A</tspan><tspan class="cls-23" x="161.59" y="0">script</tspan></text><text class="cls-18" transform="translate(699.44 306.83)"><tspan class="cls-24">P</tspan><tspan x="45.7" y="0">ython</tspan></text><text class="cls-25" transform="translate(1546.11 346.11)">css</text><rect class="cls-26" x="366.76" y="762.12" width="102.37" height="100.11" rx="18.32"/><path class="cls-27" d="M494.52,1167.72c0-6.76.05-13.53,0-20.29,0-1.58.23-2.21,2-2.18,5.47.09,11-.84,16.41.08,5.62.93,10.36,3.28,12.62,8.85,2.33,5.75,1.81,11.32-2.14,16.28-2.18,2.74-5.23,4.14-8.56,5a29.61,29.61,0,0,1-9.19.56c-1.43-.07-1.81.33-1.78,1.71.08,3.6,0,7.21.05,10.82,0,1.51-.47,2-2.35,1.77a16.53,16.53,0,0,0-4.66,0c-2.21.34-2.45-.46-2.43-2.13C494.56,1181.39,494.52,1174.56,494.52,1167.72Zm9.41-7c0,1.95,0,3.9,0,5.85,0,.65-.16,1.38.92,1.38,2.92,0,5.86.19,8.64-1a6.51,6.51,0,0,0,4-6.43,6.26,6.26,0,0,0-4.29-6.2c-2.67-1-5.44-.85-8.21-.8-1,0-1.07.58-1.06,1.33C503.94,1156.77,503.93,1158.72,503.93,1160.67Z" transform="translate(-107.43 -356.01)"/><path class="cls-27" d="M531.35,1180.42a21,21,0,0,0,12.56,2.83c1.27-.13,2.5-.36,2.85-1.71s-.78-2.18-1.86-2.73c-3-1.51-6.27-2.41-9.07-4.34a9.71,9.71,0,0,1-3-13.24,10.48,10.48,0,0,1,6.49-4.87,26.42,26.42,0,0,1,13.53.24c1.43.36,1.93,1.23,1.53,3.11a5.76,5.76,0,0,0-.08,2.07c.44,3.06.36,4.24-1.83,3.19a19.41,19.41,0,0,0-8.07-1.62,7.06,7.06,0,0,0-2.41.41c-1.79.61-2.07,2.15-.64,3.43a12.6,12.6,0,0,0,4,2,36.83,36.83,0,0,1,6,2.88c6.69,4.16,6.65,13.35-.3,17.1-6,3.26-12.41,2.56-18.7.35-.54-.19-.95-.49-1-1.09C531.34,1185.88,531.35,1183.27,531.35,1180.42Z" transform="translate(-107.43 -356.01)"/><rect class="cls-28" x="1150.99" y="415.08" width="101.35" height="99.11" rx="16.02"/><path class="cls-29" d="M1317.5,844.55c-4.7,0-4.68,0-6.3-4.51-.72-2-1-4.77-2.4-5.78s-4.15-.31-6.3-.33-4.47.16-6.68,0c-2-.17-2.75.61-3.2,2.4-.58,2.29-1.48,4.49-2.11,6.77a1.74,1.74,0,0,1-2,1.53c-1.92-.08-3.86-.09-5.79,0-1.56.07-1.91-.31-1.35-1.9,3.45-9.75,6.86-19.52,10.14-29.34,1.38-4.12,3.38-8.07,3.77-12.48.08-.87.54-.92,1.18-.92,3.19,0,6.38,0,9.58,0,1.31,0,1.35,1,1.62,1.76q5.44,15.36,10.84,30.73c1.18,3.35,2.31,6.72,3.57,10,.59,1.55.58,2.39-1.43,2.15A25,25,0,0,0,1317.5,844.55Zm-16.29-36.4c-1.73,5.61-3.38,11-5,16.28-.17.58-.13,1,.67,1,3.16,0,6.32,0,9.67,0C1304.74,819.6,1303,814.06,1301.21,808.15Z" transform="translate(-107.43 -356.01)"/><path class="cls-29" d="M1327,827.39c0-4.89.08-9.79,0-14.69,0-1.72.5-2.17,2.13-2.05a53.07,53.07,0,0,0,5.78,0c1.12,0,1.58.26,1.57,1.48q-.06,15.47,0,30.93c0,1.16-.37,1.61-1.54,1.51-2.56-.21-5.78,1-7.5-.53-1.41-1.31-.34-4.51-.38-6.86C1326.93,833.92,1327,830.66,1327,827.39Z" transform="translate(-107.43 -356.01)"/><path class="cls-29" d="M1331.88,807.1a4.94,4.94,0,0,1-5.36-5.17,5.29,5.29,0,1,1,5.36,5.17Z" transform="translate(-107.43 -356.01)"/><path class="cls-30" d="M645.71,660.81v64.66c-.25.13-.15.39-.18.59a17.25,17.25,0,0,1-5.71,10.59,16.55,16.55,0,0,1-8.93,4.09c-.13,0-.28,0-.34.16H564.62c-.06-.16-.2-.14-.33-.16a16.7,16.7,0,0,1-10.89-6.12,17,17,0,0,1-3.78-8.85c0-.12,0-.25-.16-.3V660.81c.16-.06.15-.21.16-.34a17.19,17.19,0,0,1,6-11.09,16.42,16.42,0,0,1,8.7-3.84c.12,0,.24,0,.29-.16h65.93c.13.25.38.15.58.18a16.8,16.8,0,0,1,10.36,5.76,17.22,17.22,0,0,1,4.06,9.15C645.57,660.6,645.55,660.75,645.71,660.81Zm-14.2,26.28h0V667c0-.56-.12-.67-.65-.67h-7.7c-.53,0-.63.1-.63.65v.89q0,5.71,0,11.43c0,.36-.09.43-.43.37a10.53,10.53,0,0,0-1.59-.11,27.64,27.64,0,0,0-4.54.39,17,17,0,0,0-9.29,4.72A16.57,16.57,0,0,0,601.78,695a21.17,21.17,0,0,0,.47,7,14,14,0,0,0,5.19,8.21,17.22,17.22,0,0,0,9.8,3.37,31.34,31.34,0,0,0,7.1-.46,32.26,32.26,0,0,0,6.88-2,.79.79,0,0,0,.52-.9c-.1-1.3-.23-2.6-.23-3.91Zm-49.76,9.59.24.41c2.66,4.85,5.31,9.71,7.72,14.69a1.47,1.47,0,0,0,1.47.94h9.42c.37,0,.41-.17.35-.45a1.26,1.26,0,0,0-.16-.33q-6.25-10.44-12.51-20.88a.62.62,0,0,1,0-.76q4-6.62,7.9-13.25c1.3-2.2,2.61-4.39,3.91-6.58.19-.32.07-.57-.31-.6h-8.46a.72.72,0,0,0-.82.54,5.12,5.12,0,0,1-.31.62c-2.53,4.93-5.27,9.75-7.63,14.78,0,0-.06.08-.1.14-.05-.1-.1-.17-.13-.24-.85-1.75-1.74-3.48-2.7-5.17a107.87,107.87,0,0,1-5.25-10.06,1,1,0,0,0-1-.62h-9.1c-.55,0-.64.17-.36.66l11.91,20.52a.54.54,0,0,1,0,.65q-5.57,9.24-11.1,18.5c-.39.65-.78,1.29-1.16,1.95-.26.44-.14.66.33.66h8.62a1.07,1.07,0,0,0,1.07-.61c2.21-4.07,4.33-8.19,6.48-12.29C580.65,698.86,581.18,697.8,581.75,696.68Z" transform="translate(-107.43 -356.01)"/><path class="cls-31" d="M631.51,687.09v19.18c0,1.31.13,2.61.23,3.91a.79.79,0,0,1-.52.9,32.26,32.26,0,0,1-6.88,2,31.34,31.34,0,0,1-7.1.46,17.22,17.22,0,0,1-9.8-3.37,14,14,0,0,1-5.19-8.21,21.17,21.17,0,0,1-.47-7,16.57,16.57,0,0,1,4.91-10.36,17,17,0,0,1,9.29-4.72,27.64,27.64,0,0,1,4.54-.39,10.53,10.53,0,0,1,1.59.11c.34.06.43,0,.43-.37q0-5.71,0-11.43v-.89c0-.55.1-.65.63-.65h7.7c.53,0,.65.11.65.67v20.13Zm-9,9.33c0-2.86,0-5.71,0-8.57,0-.36-.13-.46-.42-.51a10,10,0,0,0-5.88.58,8.14,8.14,0,0,0-5,5.51,12.07,12.07,0,0,0,.23,6.89,7.26,7.26,0,0,0,2.92,4,8.33,8.33,0,0,0,3.6,1.24,18,18,0,0,0,4.15-.08c.3,0,.4-.17.4-.49Q622.53,700.7,622.53,696.42Z" transform="translate(-107.43 -356.01)"/><path class="cls-31" d="M581.75,696.68c-.57,1.12-1.1,2.18-1.65,3.23-2.15,4.1-4.27,8.22-6.48,12.29a1.07,1.07,0,0,1-1.07.61h-8.62c-.47,0-.59-.22-.33-.66.38-.66.77-1.3,1.16-1.95q5.55-9.26,11.1-18.5a.54.54,0,0,0,0-.65l-11.91-20.52c-.28-.49-.19-.66.36-.66h9.1a1,1,0,0,1,1,.62,107.87,107.87,0,0,0,5.25,10.06c1,1.69,1.85,3.42,2.7,5.17,0,.07.08.14.13.24,0-.06.08-.1.1-.14,2.36-5,5.1-9.85,7.63-14.78a5.12,5.12,0,0,0,.31-.62.72.72,0,0,1,.82-.54h8.46c.38,0,.5.28.31.6-1.3,2.19-2.61,4.38-3.91,6.58q-3.95,6.63-7.9,13.25a.62.62,0,0,0,0,.76q6.27,10.44,12.51,20.88a1.26,1.26,0,0,1,.16.33c.06.28,0,.45-.35.45h-9.42a1.47,1.47,0,0,1-1.47-.94c-2.41-5-5.06-9.84-7.72-14.69Z" transform="translate(-107.43 -356.01)"/><path class="cls-30" d="M622.53,696.42q0,4.27,0,8.57c0,.32-.1.46-.4.49a18,18,0,0,1-4.15.08,8.33,8.33,0,0,1-3.6-1.24,7.26,7.26,0,0,1-2.92-4,12.07,12.07,0,0,1-.23-6.89,8.14,8.14,0,0,1,5-5.51,10,10,0,0,1,5.88-.58c.29,0,.43.15.42.51C622.52,690.71,622.53,693.56,622.53,696.42Z" transform="translate(-107.43 -356.01)"/><ellipse class="cls-17" cx="1104.1" cy="694.31" rx="125.81" ry="96.98"/><polyline class="cls-17" points="1158.17 741.69 1158.17 814.47 1102.25 758.55"/><text class="cls-32" transform="translate(1023.68 721.27)">J<tspan class="cls-33" x="35.5" y="0">A</tspan><tspan class="cls-34" x="72.96" y="0">V</tspan><tspan class="cls-35" x="109.89" y="0">A</tspan></text></svg>