<svg id="Calque_1" data-name="Calque 1" xmlns="http://www.w3.org/2000/svg" viewBox="0 0 1802.89 866.24"><defs><style>.cls-1,.cls-2,.cls-5{fill:#1d1d1b;}.cls-2,.cls-3,.cls-4{stroke:#1d1d1b;}.cls-2,.cls-3,.cls-4,.cls-5{stroke-miterlimit:10;stroke-width:14px;}.cls-3{fill:#fff;}.cls-4{fill:none;}.cls-5{stroke:#000;}</style></defs><polygon class="cls-1" points="1223.75 539.66 1073.54 539.66 1148.63 343.63 1223.75 539.66"/><path class="cls-1" d="M426,281.18q15.72,15.72,15.71,37.56T426,356.28Q410.26,372,388.41,372H228.61V265.47h159.8Q410.25,265.47,426,281.18Z" transform="translate(-8.56 -45.41)"/><path class="cls-1" d="M531.75,543.77v7.17H520.14Q526,547.53,531.75,543.77Z" transform="translate(-8.56 -45.41)"/><path class="cls-1" d="M520.14,550.94h11.61v-7.17Q526,547.52,520.14,550.94Z" transform="translate(-8.56 -45.41)"/><polygon class="cls-2" points="1795.89 7 1795.89 220.06 1636.08 220.06 1636.08 859.24 1574.75 859.24 1423.02 463.2 1423.02 220.06 1329.87 220.06 1248.24 7 1795.89 7"/><path class="cls-2" d="M677.8,265.47V372H799.87V585.07H677.8V691.59H812.7L731.07,904.65H228.61V585.07h159.8a272.08,272.08,0,0,0,76.33-10.45,246.12,246.12,0,0,0,55.4-23.68h11.61v-7.17a281.42,281.42,0,0,0,45-36.74q78-78,78-188.29t-78-188.3q-49.5-49.5-112-67.58V52.41h592.84L976,265.47Z" transform="translate(-8.56 -45.41)"/><path class="cls-3" d="M576.71,130.44q-49.5-49.5-112-67.58a272.08,272.08,0,0,0-76.33-10.45H15.56V904.65H228.61V585.07h159.8a272.08,272.08,0,0,0,76.33-10.45,246.12,246.12,0,0,0,55.4-23.68q5.88-3.41,11.61-7.17a281.42,281.42,0,0,0,45-36.74q78-78,78-188.29T576.71,130.44Zm-348.1,135h159.8q21.84,0,37.55,15.71t15.71,37.56q0,21.84-15.71,37.54T388.41,372H228.61Z" transform="translate(-8.56 -45.41)"/><path class="cls-4" d="M426,281.18q15.72,15.72,15.71,37.56T426,356.28Q410.26,372,388.41,372H228.61V265.47h159.8Q410.25,265.47,426,281.18Z" transform="translate(-8.56 -45.41)"/><path class="cls-4" d="M388.41,52.41h76.33V62.86A272.08,272.08,0,0,0,388.41,52.41Z" transform="translate(-8.56 -45.41)"/><path class="cls-4" d="M531.75,543.77v7.17H520.14Q526,547.53,531.75,543.77Z" transform="translate(-8.56 -45.41)"/><path class="cls-3" d="M1431.58,508.61V265.47h-93.15L1256.8,52.41H1057.58L976,265.47H677.8V372H799.87V585.07H677.8V691.59H812.7L731.07,904.65H959.58l37.82-98.23,3.19-8.29h313.2l41,106.52h228.51Zm-349.49,76.46,75.1-196,75.11,196Z" transform="translate(-8.56 -45.41)"/><polygon class="cls-4" points="1223.75 539.66 1073.54 539.66 1148.63 343.63 1223.75 539.66"/><polygon class="cls-5" points="1346.25 859.24 951.02 859.24 988.84 761.01 992.03 752.72 1305.23 752.72 1346.25 859.24"/><rect class="cls-3" x="1636.08" y="220.06" width="159.81" height="639.18"/><text x="-8.56" y="-45.41"/></svg>